/* XPM */
static const char *bbexit[]  = {
/* columns rows colors chars-per-pixel */
"30 30 182 2",
"   c black",
".  c #010000",
"X  c #000100",
"o  c #010100",
"O  c #010101",
"+  c #030000",
"@  c #020100",
"#  c #020001",
"$  c #000002",
"%  c #040000",
"&  c #060000",
"*  c #070000",
"=  c #080000",
"-  c #090000",
";  c #0A0000",
":  c #0B0000",
">  c #0C0000",
",  c #0D0000",
"<  c #0F0000",
"1  c #150000",
"2  c #160000",
"3  c #160400",
"4  c #180000",
"5  c #190000",
"6  c #1B0000",
"7  c #180300",
"8  c #1C0000",
"9  c #1D0000",
"0  c #160C03",
"q  c #160F07",
"w  c #1F0900",
"e  c #1D0D00",
"r  c #101010",
"t  c #220000",
"y  c #230000",
"u  c #270000",
"i  c #2D0000",
"p  c #2E0000",
"a  c #210909",
"s  c #320000",
"d  c #340000",
"f  c #360000",
"g  c #300701",
"h  c #3B0000",
"j  c #310E00",
"k  c #2F1700",
"l  c #3B1400",
"z  c #311F0B",
"x  c #2B1D10",
"c  c #3F250A",
"v  c #392615",
"b  c #3B2B2B",
"n  c #420000",
"m  c #430000",
"M  c #440000",
"N  c #490000",
"B  c #4A0100",
"V  c #4C0000",
"C  c #4D0000",
"Z  c #4D0900",
"A  c #530000",
"S  c #500700",
"D  c #5D0000",
"F  c #750000",
"G  c #7C0F08",
"H  c #462B0E",
"J  c #5E2009",
"K  c #56381C",
"L  c #6A270C",
"P  c #69310E",
"I  c #5E3F20",
"U  c #7A3D20",
"Y  c #664524",
"T  c #61472C",
"R  c #61472E",
"E  c #6F4D2A",
"W  c #7A472C",
"Q  c #6C563E",
"!  c #7E5A36",
"~  c #70553A",
"^  c #584E44",
"/  c #605040",
"(  c #755C46",
")  c #675E55",
"_  c #7E6348",
"`  c #7D6C5C",
"'  c #7A6C61",
"]  c #860000",
"[  c #A00701",
"{  c #B40D07",
"}  c #BC1D1A",
"|  c #BF1B1C",
" . c #BB1D1C",
".. c #BC1C1C",
"X. c #8D241E",
"o. c #972421",
"O. c #A42723",
"+. c #A02829",
"@. c #B02221",
"#. c #DB0F0E",
"$. c #DF0D0C",
"%. c #D8110E",
"&. c #CE1513",
"*. c #C01A1A",
"=. c #C61819",
"-. c #D11313",
";. c #D31312",
":. c #D41210",
">. c #D51112",
",. c #E90909",
"<. c #E80A09",
"1. c #ED0908",
"2. c #EC0809",
"3. c #F00605",
"4. c #F80302",
"5. c #83592F",
"6. c #84592F",
"7. c #875636",
"8. c #8F5D3C",
"9. c #925C36",
"0. c #85613D",
"q. c #8F683F",
"w. c #966636",
"e. c #976737",
"r. c #986432",
"t. c #996533",
"y. c #9A6533",
"u. c #986633",
"i. c #996535",
"p. c #986635",
"a. c #9A6634",
"s. c #986536",
"d. c #9A6636",
"f. c #93673A",
"g. c #956638",
"h. c #966638",
"j. c #95663A",
"k. c #92653C",
"l. c #91673D",
"z. c #92673C",
"x. c #92673D",
"c. c #90663E",
"v. c #91673F",
"b. c #95653D",
"n. c #99663B",
"m. c #9A623D",
"M. c #98643C",
"N. c #98643D",
"B. c #8E6642",
"V. c #8F6743",
"C. c #8F6744",
"Z. c #8E6841",
"A. c #8F6841",
"S. c #8C6943",
"D. c #8E6843",
"F. c #8A6946",
"G. c #8B6946",
"H. c #8C6844",
"J. c #87694D",
"K. c #846A4F",
"L. c #8A6948",
"P. c #8B6A49",
"I. c #8B6A4B",
"U. c #886B4D",
"Y. c #906844",
"T. c #816B54",
"R. c #867F77",
"E. c #A69F97",
"W. c #C6BFB9",
"Q. c #D3CFCC",
"!. c #E1E0DC",
"~. c #FFF5F6",
"^. c #FFF8F8",
"/. c #FFFEFA",
"(. c #FFFEFB",
"). c #FFFFFB",
"_. c #FFFCFD",
"`. c #FFFFFD",
"'. c #FEFEFE",
"]. c #FFFEFF",
"[. c #FEFFFF",
"{. c gray100",
/* pixels */
"X X X X X X X X X X X X X X X X X X X X X X X X X X X X X X ",
"X [.[.[.[.[.[.& 0 : & & X X X X X X X X X X [.[.[.[.[.[.[.X ",
"X [.[.[.[.[.[.& K.Y c 3 : & X X X X X X X X [.[.[.[.[.[.[.X ",
"X [.[.[.[.[.[.: H.j.A.P.R z > : & & X X X X [.[.[.[.[.[.[.X ",
"X [.[.[.[.[.[.: V.p.w.j.x.q.0.I k > : X X X [.[.[.[.[.[.[.X ",
"X [.[.[.[.[.[.: V.t.p.t.t.p.w.x.H.( & X X X [.[.[.[.[.[.[.X ",
"X [.[._.[.[.[.: V.t.t.t.t.p.p.w.x.K.: X X X [.[.[.[.[.[.[.X ",
"X [.[.[.[.[.[.: B.t.t.r.t.p.j.6.l _ & X X X [.[.[.[.[.[.[.X ",
"X [.[.[.[.[.[.: V.t.p.p.t.j.V.j 7 T.& X X X [.[.[.[.[.[.[.X ",
"X [.[.[.[.[.[.: V.t.t.p.p.N.J f 7 ` & X X X [.[.[.[.[.[.[.X ",
"X [.[.[.[.[.[.: V.t.t.p.x.U A X.t ' & X X X [.[.[.[.[.[.[.X ",
"X [.[.[.[.[.[.: V.t.t.j.7.M [ } C f p p p p p t b (.[.[.[.X ",
"X [.[.[.[.[.[.: C.p.p.N.B F :.<.#.:.-.-.-.-.-.@.t [.[.[.[.X ",
"X [.[.[.[.[.[.: C.p.w.P h O.$.4.3.2.<.<.<.<.<.*.u [.[.(.[.X ",
"X [.[.[.[.[.[.> V.r.p.9.f G %.1.:.=.| .. . ...+.9 [.[.[.[.X ",
"X [.[.[.[.[.[.> V.p.p.b.W M { &.] A B m m m m s a (.[.[.[.X ",
"X [.[.[.[.[.[.: V.t.t.p.b.L D o.C p 9 2 2 2 ~.^.(.[.[.[.[.X ",
"X [.[.[.[.[.[.: V.t.p.p.p.m.S Z g > : X X X [.[.[.[.[.[.[.X ",
"X [.[.[.[.[.[.: V.t.t.t.p.n.8.u 7 > X X X X [.[.(.[.[.[.[.X ",
"X [.[.[.[.[.[.: V.t.t.t.p.p.x.E 2 / & X X X [.[.[.[.[.[.[.X ",
"X [.[.[.[.[.[.: C.t.t.t.t.p.p.j.5.K.: X X X [.[.[.[.[.[.[.X ",
"X [.[.[.[.[.[.: B.t.t.t.t.r.p.t.w.A.: X X X [.[.[.[.[.[.[.X ",
"X [.[.[.[.[.[.: C.t.r.p.t.t.t.t.t.A.: X X X [.[.[.[.[.[.[.X ",
"X [.[.[.[.[.[.: P.b.j.p.p.t.t.y.p.A.> X X X [.[.[.[.[.[.[.X ",
"X [.[.[.[.[.(.q v ~ H.x.j.p.t.r.t.A.: X X r [.[.[.[.[.[.[.X ",
"X [.[.[.[.[.[.Q.) e w K ! x.x.j.w.A.: [.[.[.[.[.[.[.[.[.[.X ",
"X [.[.[.[.[.[.[.(.(.E.^ > z T P.x.F.& [.[.[.[.[.[.[.[.[.[.X ",
"X [.[.[.[.[.[.[.[.[.[.[.!.R.x 7 H Q : [.[.[.[.[.[.[.[.[.[.X ",
"X [.[.[.[.[.[.[.[.[.[.[.[.(.(.W.) q X [.[.[.[.[.[.[.[.[.[.X ",
"r X X X X X X X X X X X X X X X X X X X X X X X X X X X X r "
};
