/* XPM */
static const char *meshopen[] = {
"30 30 61 1",
"  c black",
". c #010101",
"X c #0B0B0B",
"o c #0C0C0C",
"O c #101010",
"+ c #181818",
"@ c #191919",
"# c gray11",
"$ c gray12",
"% c #202020",
"& c #252525",
"* c gray15",
"= c gray16",
"- c gray19",
"; c #323232",
": c gray20",
"> c #343434",
", c gray21",
"< c #3C3C3C",
"1 c #3E3E3E",
"2 c #3F3F3F",
"3 c gray25",
"4 c #434343",
"5 c #4B4B4B",
"6 c #4C4C4C",
"7 c #505050",
"8 c #585858",
"9 c gray35",
"0 c #5A5A5A",
"q c #606060",
"w c #656565",
"e c gray40",
"r c #676767",
"t c gray44",
"y c #727272",
"u c gray50",
"i c #808080",
"p c gray55",
"a c #8D8D8D",
"s c gray56",
"d c #909090",
"f c #989898",
"g c gray60",
"h c #9A9A9A",
"j c #A0A0A0",
"k c #A5A5A5",
"l c gray65",
"z c gray69",
"x c #B2B2B2",
"c c gray70",
"v c gray",
"b c gray75",
"n c #C0C0C0",
"m c #CBCBCB",
"M c gray80",
"N c #CDCDCD",
"B c #D0D0D0",
"V c gray88",
"C c gray94",
"Z c #FEFEFE",
"A c gray100",
/* pixels */
"                              ",
" AAAAAAAnq  @ 69   %dCAAAAAAA ",
" AAAAAz%o@osu@MM;32 * zAAAAAA ",
" AAAA7 *yokM*yMMh b6;yo7BAAAA ",
" AAAs 9MXhmm zMMM@hM;ub>@CAAA ",
" AAj6kMu@mhs eyhh*umc*MMs2CAA ",
" AV3MMM@o  @@e9>;@  @ eMMiyAA ",
" A3kMu@o6uneeMMMMh;he* 6zM2bA ",
" n9k@@@yMMM9yMMMMzoMMMo; 6k3A ",
" 3eoyM@kMMM;hMMMMM MMM6ez2**n ",
"  okMkohhhho9eeeee hhhy>MM6 q ",
"  hzu>@;;;; eeeeee ;>*  9hn;% ",
" @@ ;>eMMMM MMMMMM MMMM 9>o*  ",
" @unMeeMMmh;MMMMMM>hMMM MMny  ",
" hMMMeeMMMh;MMMMMM>hMMM MMMM= ",
" *bMMeeMMMh>MMMMMM;hMMM MMne  ",
"  X5keeMMMz@MMmMMM;hMMm n6o@  ",
" @s3* @9eee hhhhfho9ee6 o3ue  ",
"  eMMu*yeee ;;;>;; eeee@MMco; ",
"  oemh MMMM;hMMMMM MMMu;Mz= 0 ",
" q6*2zosMMM;hMMMMm MMM6yuoe@V ",
" Voz9 o9MMMeeMMMMh>MMboo@hp0A ",
" AieMz6 *uby9MMMMh;k9XouMb=CA ",
" AA6kMM;*2  o;;;;@ @6 sMM9jAA ",
" AAC>cMhobMz hhhh*iMu2mMyyAAA ",
" AAAB@rM6>MM*hmmz zkXkz;iAAAA ",
" AAAAC2*s6eM96MM66k*s9#jAAAAA ",
" AAAAACy @o*h kk 6 > 7CAAAAAA ",
" AAAAAAAVq   ooo  %yBAAAAAAAA ",
"O                    .       O"
};
