/* XPM */
static const char *meshtexopen[]  = {
/* columns rows colors chars-per-pixel */
"30 30 256 2",
"   c #010000",
".  c #0C0100",
"X  c #1B0100",
"o  c #1C0900",
"O  c #191400",
"+  c #101010",
"@  c #240000",
"#  c #2C0000",
"$  c #2B0C00",
"%  c #340000",
"&  c #3C0100",
"*  c #370A00",
"=  c #261100",
"-  c #2A1403",
";  c #221C03",
":  c #3E1200",
">  c #3E1A00",
",  c #2B1B1B",
"<  c #26210E",
"1  c #3D2000",
"2  c #383000",
"3  c #262012",
"4  c #333220",
"5  c #440100",
"6  c #4C0100",
"7  c #460F00",
"8  c #4D0E00",
"9  c #540200",
"0  c #5C0200",
"q  c #520C02",
"w  c #5E0B00",
"e  c #5C0909",
"r  c #560A0A",
"t  c #421400",
"y  c #4B1200",
"u  c #571600",
"i  c #531C02",
"p  c #5A1804",
"a  c #660000",
"s  c #6C0000",
"d  c #6C0D00",
"f  c #640D07",
"g  c #770400",
"h  c #7A0000",
"j  c #770B00",
"k  c #7A0A00",
"l  c #7A0D0C",
"z  c #6B1101",
"x  c #681800",
"c  c #751300",
"v  c #7D1609",
"b  c #4E2700",
"n  c #462805",
"m  c #5D2302",
"M  c #552200",
"N  c #4A3A00",
"B  c #513700",
"V  c #5F3200",
"C  c #5C3A00",
"Z  c #553C00",
"A  c #622E01",
"S  c #6D2E00",
"D  c #7E2000",
"F  c #76240C",
"G  c #623300",
"H  c #6B3500",
"J  c #6F3D0C",
"K  c #703000",
"L  c #66211C",
"P  c #672819",
"I  c #75201E",
"U  c #79271A",
"Y  c #4F3B30",
"T  c #6A2E2E",
"R  c #623F21",
"E  c #623232",
"W  c #753130",
"Q  c #554A0C",
"!  c #6B4300",
"~  c #634800",
"^  c #664600",
"/  c #6A5C00",
"(  c #705700",
")  c #764E1B",
"_  c #66542E",
"`  c #774B26",
"'  c #7F7923",
"]  c #79773C",
"[  c #6A4544",
"{  c #6B5D54",
"}  c #66614E",
"|  c #666052",
" . c #7B6D67",
".. c #830500",
"X. c #8F0700",
"o. c #8E0B00",
"O. c #950904",
"+. c #8B1B03",
"@. c #8C140B",
"#. c #9D1400",
"$. c #9E170C",
"%. c #901702",
"&. c #831312",
"*. c #9A1C18",
"=. c #B30C00",
"-. c #A31300",
";. c #B31605",
":. c #B81A0D",
">. c #A91110",
",. c #AA1E16",
"<. c #A81F19",
"1. c #A01D15",
"2. c #BD1E14",
"3. c #B71F1E",
"4. c #BC1C1C",
"5. c #8C210F",
"6. c #81250E",
"7. c #8C300B",
"8. c #872019",
"9. c #812510",
"0. c #992816",
"q. c #BF2100",
"w. c #B7230A",
"e. c #A72819",
"r. c #A82415",
"t. c #B62112",
"y. c #B0221E",
"u. c #972620",
"i. c #982424",
"p. c #AA2424",
"a. c #A32622",
"s. c #B12120",
"d. c #DE0E0E",
"f. c #CB1A03",
"g. c #CD170C",
"h. c #C31808",
"j. c #D51600",
"k. c #DC1201",
"l. c #D3130C",
"z. c #DA110C",
"x. c #C71717",
"c. c #CB1615",
"v. c #C51A14",
"b. c #C21A19",
"n. c #D41211",
"m. c #ED0707",
"M. c #E70B0A",
"N. c #FC0101",
"B. c #C02000",
"V. c #925A0D",
"C. c #885F10",
"Z. c #836500",
"A. c #8C6500",
"S. c #906200",
"D. c #9F6F02",
"F. c #9E6E08",
"G. c #8C7808",
"H. c #8D7801",
"J. c #937502",
"K. c #9D7300",
"L. c #917508",
"P. c #826110",
"I. c #9F6B15",
"U. c #94701A",
"Y. c #A27500",
"T. c #8A7037",
"R. c #825252",
"E. c #9A5E5E",
"W. c #A17946",
"Q. c #975F60",
"!. c #9B7475",
"~. c #A96F6E",
"^. c #9B821B",
"/. c #AA8400",
"(. c #B5910E",
"). c #B19312",
"_. c #B38A3A",
"`. c #ACA53D",
"'. c #BEB43B",
"]. c #C2A01B",
"[. c #D6AD1D",
"{. c #D2B211",
"}. c #D3AD26",
"|. c #D9AA26",
" X c #CCB222",
".X c #CAB228",
"XX c #C3B524",
"oX c #CDAD34",
"OX c #C6B134",
"+X c #D4BF3F",
"@X c #FEFD0D",
"#X c #FCFB1D",
"$X c #FDFC15",
"%X c #CDC437",
"&X c #D7C137",
"*X c #ECD12C",
"=X c #F0CC38",
"-X c #E3D433",
";X c #FFF62C",
":X c #FAFA2B",
">X c #FDF824",
",X c #F7F73E",
"<X c #F7F838",
"1X c #F8F838",
"2X c #FDF436",
"3X c #A58D4F",
"4X c #B88641",
"5X c #A29143",
"6X c #AD9D5F",
"7X c #BAAC6D",
"8X c #C2B040",
"9X c #C1AE52",
"0X c #D0BA67",
"qX c #D1C147",
"wX c #DBD05A",
"eX c #E8CD48",
"rX c #E6CC51",
"tX c #FFED44",
"yX c #FFEC4D",
"uX c #F7F644",
"iX c #FBF444",
"pX c #F6F64C",
"aX c #FFF04D",
"sX c #FFED52",
"dX c #FBEF5F",
"fX c #F5F553",
"gX c #FDF152",
"hX c #F3F35F",
"jX c #FAF15D",
"kX c #DFCA6F",
"lX c #D5D068",
"zX c #E9C56F",
"xX c #ECC371",
"cX c #EEDB74",
"vX c #F3D774",
"bX c #FEEB64",
"nX c #F8ED6F",
"mX c #FDEA73",
"MX c #FDE87B",
"NX c #F0F172",
"BX c #978C86",
"VX c #AC8283",
"CX c #BD9394",
"ZX c #B6AEAD",
"AX c #C09292",
"SX c #C8BEB9",
"DX c #D2B8B9",
"FX c #FFE785",
"GX c #EDC5C5",
"HX c #ECDBDA",
"JX c #EBDCD7",
"KX c #FBD4D5",
"LX c #FFE8E7",
"PX c #FCEBEB",
"IX c #FBEAEA",
"UX c #FFFEFE",
/* pixels */
"                          . X X .                           ",
"  UXUXUXUXUXUXUXSX| .   < X 9 r X     < BXPXUXUXUXUXUXUXUX  ",
"  UXUXUXUXUXZX, X X O `.3X5 2.2.9 ` Q . $ X ZXUXUXUXUXUXUX  ",
"  UXUXUXUX[ @ % n $ %XbXb c z.z.@.# cX/ * i @ [ HXUXUXUXUX  ",
"  UXUXUXVX% h 0.# '.uXgX# 8.n.n.s.6  XgXC x r.a & LXUXUXUX  ",
"  UXUXCX0 *.3.o.y MX X].# z X.-.+.6 (.bXxX6 2.3.&.L PXUXUX  ",
"  UXKXf 4.x.p.6 & # % & > G.S.H C > @ @ : % g 3.b.O.Q.UXUX  ",
"  UXT &.:.O.9 5 a &.i.z J.fX,X,XpXOX5 I f 9 5 s ;.r.6 DXUX  ",
"  DXr 7.5 q w k v.n.b.g /.:X#X$X#X*X5 p.c.2.5 A % q T E UX  ",
"  Y p & ^.FX8 5.g.z.4.a |.2X;X;X;XyX5 p.l.h.q T.kX~ * % SX  ",
"  . = 8XjXqX# F +.%.v & V.F.D.D.K.I.# U +.+.p B bXjX/ . }   ",
"  . 9XrX).C > G S S G # d k k k k d # G S m X X A.}.vXN ;   ",
"  - t & 0 6 J.aX2XiXmX& :.k.k.k.k.B.& mXtXiXmX# d a 6 M .   ",
". # l <.s.k K.:X@X>XXX9 k.N.N.N.N.j.9 XX#X#XfX# w.v.,.z X   ",
"X I b.z.c...Y.:X@X#XXX9 k.N.N.N.N.k.9 .X#X#XfX% f.M.n.y.% . ",
"@ 6 :.l.v...K.1X#X;XOX9 j.N.N.N.N.j.9 OX;X>XhX% :.z.h...X . ",
". X & w 5.x L.fX<XuXwX5 f.m.m.m.m.f.6 8XiXuXNXX 7.a 5 : .   ",
"  O 6X^ M # > Z.Y.D.U.% #.=.=.=.=.#.& C.K.K.( X * ! 5X]     ",
"  . ' NXsX(.5 c ....j & H H H H H H & d ..k x t sXaXlXO 4   ",
"    o H.gX.X& a.c.c.p.0 oXpXiXuXiXbX& p.x.v.c A yX-Xn . |   ",
". { t & ^ zX& @.z.M.x.s [.:X#X$X#XtX6 3.M.l.w W._.* i # JX  ",
"  HX% U w & 5 s v.l.b.k K.<X>X$X>X{.0 s.x.:.5 & 5 F L R.UX  ",
"  UX!.e 2.;.g 5 9 v 0.z Z.hXpXuXpXOX5 U w 5 9 X.v.r.5 PXUX  ",
"  UXUXW >.x.s.0 p J % % - Z G H C > @ t ` % O.4.b.h AXUXUX  ",
"  UXUXLX9 *.b.#.5 vXsX=X% D -.-.+.5 ).bX4X0 t.4.l E.UXUXUX  ",
"  UXUXUXGX6 ..e.8 Z iXyXm +.g.n.0.% eX+X* F 1.a ~.UXUXUXUX  ",
"  UXUXUXUXLXE & L t G.mXP.0 g.g.a ) 0Xt m r & CXUXUXUXUXUX  ",
"  UXUXUXUXUXPX .X @ o 2 7X# $.$.# _ . - @ [ PXUXUXUXUXUXUX  ",
"  UXUXUXUXUXUXUXJX{ .   . o @ @ .   3  .JXUXUXUXUXUXUXUXUX  ",
"+                           .                             + "
};
